<svg width="24" height="23" viewBox="0 0 24 23" fill="none" xmlns="http://www.w3.org/2000/svg">
<path d="M5.18052 1.33939C5.42358 2.06856 5.02861 2.85415 4.30379 3.09721L3.16663 3.47481V8.72221C3.16663 11.0226 5.03295 12.8889 7.3333 12.8889C9.63365 12.8889 11.5 11.0226 11.5 8.72221V3.47481L10.3672 3.09721C9.63799 2.85415 9.24736 2.06856 9.49042 1.33939C9.73347 0.610228 10.5191 0.219603 11.2482 0.462658L12.381 0.840262C13.5139 1.21787 14.2777 2.27689 14.2777 3.47481V8.72221C14.2777 12.0729 11.908 14.868 8.75257 15.5234C9.02601 17.9496 11.0833 19.8333 13.5833 19.8333C16.2699 19.8333 18.4444 17.6588 18.4444 14.9722V11.9036C17.2161 11.3698 16.3611 10.1458 16.3611 8.72221C16.3611 6.8038 17.9149 5.24998 19.8333 5.24998C21.7517 5.24998 23.3055 6.8038 23.3055 8.72221C23.3055 10.1458 22.4505 11.3698 21.2222 11.9036V14.9722C21.2222 19.191 17.8021 22.6111 13.5833 22.6111C9.55118 22.6111 6.25257 19.4904 5.96611 15.5321C2.78469 14.8941 0.388855 12.0903 0.388855 8.72221V3.47481C0.388855 2.28123 1.15274 1.21787 2.2899 0.840262L3.42271 0.462658C4.15188 0.219603 4.93747 0.614568 5.18052 1.33939ZM19.8333 10.1111C20.2017 10.1111 20.5549 9.96477 20.8154 9.7043C21.0759 9.44383 21.2222 9.09056 21.2222 8.72221C21.2222 8.35385 21.0759 8.00058 20.8154 7.74011C20.5549 7.47965 20.2017 7.33332 19.8333 7.33332C19.4649 7.33332 19.1117 7.47965 18.8512 7.74011C18.5907 8.00058 18.4444 8.35385 18.4444 8.72221C18.4444 9.09056 18.5907 9.44383 18.8512 9.7043C19.1117 9.96477 19.4649 10.1111 19.8333 10.1111Z" fill="white"/>
</svg>
