<svg width="26" height="25" viewBox="0 0 26 25" fill="none" xmlns="http://www.w3.org/2000/svg">
<path d="M9.34375 2.9375H16.6562C16.8797 2.9375 17.0625 3.12031 17.0625 3.34375V5.375H8.9375V3.34375C8.9375 3.12031 9.12031 2.9375 9.34375 2.9375ZM6.5 3.34375V5.375V7V24.875H19.5V7V5.375V3.34375C19.5 1.77461 18.2254 0.5 16.6562 0.5H9.34375C7.77461 0.5 6.5 1.77461 6.5 3.34375ZM4.875 5.375H3.25C1.45742 5.375 0 6.83242 0 8.625V21.625C0 23.4176 1.45742 24.875 3.25 24.875H4.875V5.375ZM21.125 24.875H22.75C24.5426 24.875 26 23.4176 26 21.625V8.625C26 6.83242 24.5426 5.375 22.75 5.375H21.125V24.875ZM11.375 11.0625C11.375 10.6156 11.7406 10.25 12.1875 10.25H13.8125C14.2594 10.25 14.625 10.6156 14.625 11.0625V13.5H17.0625C17.5094 13.5 17.875 13.8656 17.875 14.3125V15.9375C17.875 16.3844 17.5094 16.75 17.0625 16.75H14.625V19.1875C14.625 19.6344 14.2594 20 13.8125 20H12.1875C11.7406 20 11.375 19.6344 11.375 19.1875V16.75H8.9375C8.49063 16.75 8.125 16.3844 8.125 15.9375V14.3125C8.125 13.8656 8.49063 13.5 8.9375 13.5H11.375V11.0625Z" fill="white"/>
</svg>
