<svg width="20" height="21" viewBox="0 0 20 21" fill="none" xmlns="http://www.w3.org/2000/svg">
<path d="M16.2508 8.20358C16.2508 9.99664 15.6687 11.653 14.6882 12.9968L19.6338 17.9462C20.1221 18.4346 20.1221 19.2276 19.6338 19.7159C19.1455 20.2042 18.3525 20.2042 17.8642 19.7159L12.9186 14.7664C11.5748 15.7508 9.91845 16.329 8.1254 16.329C3.6369 16.329 0 12.6921 0 8.20358C0 3.71508 3.6369 0.078186 8.1254 0.078186C12.6139 0.078186 16.2508 3.71508 16.2508 8.20358ZM8.1254 13.8289C8.86412 13.8289 9.59561 13.6834 10.2781 13.4007C10.9606 13.118 11.5807 12.7036 12.1031 12.1813C12.6254 11.6589 13.0398 11.0388 13.3225 10.3563C13.6052 9.67379 13.7507 8.94231 13.7507 8.20358C13.7507 7.46486 13.6052 6.73337 13.3225 6.05088C13.0398 5.36839 12.6254 4.74827 12.1031 4.22591C11.5807 3.70356 10.9606 3.2892 10.2781 3.00651C9.59561 2.72381 8.86412 2.57831 8.1254 2.57831C7.38668 2.57831 6.65519 2.72381 5.9727 3.00651C5.29021 3.2892 4.67008 3.70356 4.14773 4.22591C3.62537 4.74827 3.21102 5.36839 2.92832 6.05088C2.64562 6.73337 2.50012 7.46486 2.50012 8.20358C2.50012 8.94231 2.64562 9.67379 2.92832 10.3563C3.21102 11.0388 3.62537 11.6589 4.14773 12.1813C4.67008 12.7036 5.29021 13.118 5.9727 13.4007C6.65519 13.6834 7.38668 13.8289 8.1254 13.8289Z" fill="black"/>
</svg>
