<svg width="30" height="27" viewBox="0 0 30 27" fill="none" xmlns="http://www.w3.org/2000/svg">
<path d="M12.8966 4.2134C13.7108 6.65607 12.8795 9.12151 11.0404 9.72506C9.20128 10.3286 7.049 8.83681 6.23478 6.39415C5.42056 3.95149 6.25186 1.48605 8.09098 0.882498C9.93009 0.27895 12.0824 1.77074 12.8966 4.2134ZM5.71664 10.2318C6.79278 12.0766 6.53086 14.2232 5.13587 15.0203C3.74087 15.8175 1.73663 14.9691 0.666189 13.1243C-0.404256 11.2795 -0.153726 9.1329 1.24127 8.33576C2.63626 7.53862 4.6405 8.387 5.71095 10.2318H5.71664ZM3.94016 21.7676C6.92374 13.7221 12.2247 11.678 14.5763 11.678C16.9278 11.678 22.2288 13.7221 25.2124 21.7676C25.4174 22.3199 25.5085 22.912 25.5085 23.5042V23.5953C25.5085 25.0643 24.3185 26.2543 22.8495 26.2543C22.1947 26.2543 21.5456 26.1746 20.9135 26.0152L15.9029 24.7625C15.0318 24.5462 14.1208 24.5462 13.2496 24.7625L8.23902 26.0152C7.607 26.1746 6.9579 26.2543 6.30311 26.2543C4.83409 26.2543 3.64408 25.0643 3.64408 23.5953V23.5042C3.64408 22.912 3.73518 22.3199 3.94016 21.7676ZM24.0167 15.0203C22.6217 14.2232 22.3598 12.0766 23.4359 10.2318C24.5121 8.387 26.5106 7.53862 27.9056 8.33576C29.3006 9.1329 29.5625 11.2795 28.4864 13.1243C27.4102 14.9691 25.4117 15.8175 24.0167 15.0203ZM17.6567 9.72506C15.8175 9.12151 14.9862 6.65607 15.8005 4.2134C16.6147 1.77074 18.767 0.27895 20.6061 0.882498C22.4452 1.48605 23.2765 3.95149 22.4623 6.39415C21.648 8.83681 19.4958 10.3286 17.6567 9.72506Z" fill="#1D7263"/>
</svg>
